<svg width="512" height="512" viewBox="0 0 512 512" fill="none" xmlns="http://www.w3.org/2000/svg">
<rect width="512" height="512" rx="128" fill="url(#paint0_linear)"/>
<path d="M256 360C313.438 360 360 313.438 360 256C360 198.562 313.438 152 256 152C198.562 152 152 198.562 152 256C152 313.438 198.562 360 256 360ZM256 360L286 390" stroke="white" stroke-width="40" stroke-linecap="round" stroke-linejoin="round"/>
<path d="M256 152V152C198.562 152 152 198.562 152 256" stroke="white" stroke-width="40" stroke-linecap="round"/>
<path d="M360 256C360 198.562 313.438 152 256 152" stroke="white" stroke-width="40" stroke-linecap="round"/>
<path d="M152 256C152 313.438 198.562 360 256 360" stroke="white" stroke-width="40" stroke-linecap="round"/>
<path d="M256 360C313.438 360 360 313.438 360 256" stroke="white" stroke-width="40" stroke-linecap="round"/>
<defs>
<linearGradient id="paint0_linear" x1="0" y1="0" x2="512" y2="512" gradientUnits="userSpaceOnUse">
<stop stop-color="#9b87f5"/>
<stop offset="1" stop-color="#7E69AB"/>
</linearGradient>
</defs>
</svg>
